<svg width="1045" height="275" viewBox="0 0 1045 275" fill="none" xmlns="http://www.w3.org/2000/svg">
<path d="M1 161.334C1.78875 157.733 2.60571 154.472 3.3618 151.197C9.7314 123.607 28.396 108.702 58.128 107.477C80.8219 106.542 95.9058 111.83 111.051 125.758C118.423 121.342 125.242 116.103 132.91 112.894C151.473 105.126 170.725 105.165 189.416 112.209C210.906 120.307 220.149 138.086 221.784 159.625C223.194 178.189 222.665 196.906 222.806 215.557C222.941 233.38 222.835 251.204 222.835 269.439C211.107 269.439 199.576 269.439 187.467 269.439C187.467 267.598 187.467 265.807 187.467 264.016C187.468 233.519 187.494 203.021 187.45 172.524C187.44 165.523 187.233 158.524 183.541 152.2C177.221 141.372 163.461 136.52 149.338 140.178C136.851 143.413 129.556 153.252 129.529 167.286C129.469 199.45 129.512 231.614 129.513 263.778C129.513 265.584 129.513 267.39 129.513 269.52C117.587 269.52 106.045 269.52 93.9957 269.52C93.9957 267.668 93.9957 265.886 93.9957 264.104C93.995 232.107 93.9897 200.109 93.996 168.112C93.9983 156.562 90.0803 146.876 79.053 142.097C67.1395 136.935 55.2715 137.62 44.8016 146.203C38.588 151.297 36.2612 158.411 36.2234 166.172C36.0651 198.667 36.0637 231.163 36.0055 263.658C36.0023 265.487 36.0051 267.315 36.0051 269.838C24.9271 269.838 14.0046 269.838 2.61394 269.325C2.11083 235.189 2.09047 201.565 1.99686 167.942C1.99227 166.294 1.34696 164.648 1 163.001C1 162.556 1 162.112 1 161.334Z" fill="#030303"/>
<path d="M1 163.469C1.34696 164.647 1.99227 166.293 1.99686 167.941C2.09047 201.564 2.11083 235.188 2.16034 269.261C1.98012 269.764 1.78538 269.816 1.29532 269.934C1 234.646 1 199.292 1 163.469Z" fill="#6F6F6F"/>
<path d="M534.16 266.179C488.084 287.385 437.327 264.169 421.642 220.638C401.102 163.635 443.802 109.331 497.906 108.723C540.362 108.247 584.806 143.946 581.792 198.794C581.704 200.411 581.22 202.006 580.871 203.871C538.52 203.871 496.413 203.871 454.272 203.871C456.214 221.611 472.114 238.714 489.359 241.897C508.945 245.512 528.671 236.109 536.956 218.748C538.705 215.082 540.82 214.042 544.543 214.096C555.655 214.258 566.772 214.154 578.678 214.154C571.262 238.328 556.598 255.309 534.16 266.179ZM473.884 148.315C465.709 154.809 459.486 162.612 456.694 172.938C485.379 172.938 513.494 172.938 541.698 172.938C533.95 142.53 498.819 130.506 473.884 148.315Z" fill="#020202"/>
<path d="M286.795 224.146C300.831 241.858 321.201 247.614 339.798 238.946C349.527 234.412 357.277 227.569 362.012 217.59C362.735 216.066 365.03 214.366 366.635 214.329C378.444 214.053 390.262 214.18 402.123 214.18C396.323 245.007 359.861 279.217 313.751 273.527C264.782 267.485 233.239 223.811 242.106 175.826C250.665 129.507 297.057 99.4115 343.058 111.231C390.28 123.365 411.129 169.045 404.877 203.814C362.77 203.814 320.563 203.814 276.787 203.814C280.388 211.188 283.482 217.524 286.795 224.146ZM322.606 140.002C302.813 140.922 282.301 157.392 281.403 172.749C309.535 172.749 337.687 172.749 365.962 172.749C361.7 153.947 344.097 140.556 322.606 140.002Z" fill="#020202"/>
<path d="M876.434 271.695C824.169 254.602 801.125 196.105 828.179 150.005C845.823 119.939 880.073 104.001 913.574 110.268C948.062 116.72 974.331 143.604 979.759 178.194C980.479 182.777 980.777 187.468 980.796 192.111C980.895 216.594 980.842 241.078 980.842 265.562C980.842 267.026 980.842 268.491 980.842 270.248C969.069 270.248 957.656 270.248 945.906 270.248C945.906 265.253 945.906 260.489 945.906 254.907C925.241 272.158 902.532 278.428 876.434 271.695ZM911.558 141.74C904.026 139.343 896.417 139.179 889.011 141.884C848.041 156.851 845.774 203.916 868.518 227.61C885.273 245.064 906.783 247.711 924.643 234.505C941.036 222.382 948.682 205.743 946.624 185.463C944.446 163.993 932.944 149.218 911.558 141.74Z" fill="#020202"/>
<path d="M794.562 243.429C801.963 251.895 809.122 260.1 817.027 269.16C802.511 269.16 789.098 269.273 775.693 269.008C774.146 268.977 772.414 267.054 771.15 265.661C751.805 244.349 732.517 222.984 713.249 201.602C712.51 200.781 712.099 199.664 711.535 198.685C711.127 198.968 710.719 199.251 710.311 199.534C710.311 222.76 710.311 245.986 710.311 269.531C698.357 269.531 686.769 269.531 674.814 269.531C674.814 204.895 674.814 140.186 674.814 75.1523C686.552 75.1523 698.282 75.1523 710.395 75.1523C710.395 107.967 710.395 140.737 710.395 174.83C714.141 170.723 717.102 167.546 719.987 164.3C734.907 147.513 749.745 130.652 764.812 113.998C766.336 112.314 769.187 111.001 771.452 110.953C784.771 110.67 798.099 110.814 812.61 110.814C789.567 136.211 767.116 160.955 744.27 186.134C761.053 205.258 777.686 224.213 794.562 243.429Z" fill="#040404"/>
<path d="M598.826 189.001C598.826 150.748 598.826 112.994 598.826 75.043C610.689 75.043 622.115 75.043 634.006 75.043C634.006 86.933 634.006 98.8245 634.006 111.361C643.973 111.361 653.508 111.361 663.272 111.361C663.272 122.254 663.272 132.495 663.272 143.155C653.621 143.155 644.193 143.155 634.336 143.155C634.336 185.457 634.336 227.346 634.336 269.534C622.351 269.534 610.803 269.534 598.826 269.534C598.826 242.713 598.826 216.107 598.826 189.001Z" fill="#010101"/>
<path d="M998.156 168C998.156 148.864 998.156 130.227 998.156 111.205C1009.74 111.205 1021.11 111.205 1032.74 111.205C1032.74 163.807 1032.74 216.53 1032.74 269.55C1021.47 269.55 1010.22 269.55 998.156 269.55C998.156 235.946 998.156 202.223 998.156 168Z" fill="#020202"/>
<circle cx="1013" cy="33" r="32" fill="#69B7EC"/>
<path d="M474.19 148.122C498.818 130.505 533.95 142.529 541.697 172.937C513.493 172.937 485.378 172.937 456.693 172.937C459.485 162.611 465.708 154.808 474.19 148.122Z" fill="#FDFDFD"/>
<path d="M323.069 140.002C344.097 140.557 361.699 153.947 365.962 172.749C337.687 172.749 309.535 172.749 281.402 172.749C282.301 157.392 302.813 140.922 323.069 140.002Z" fill="#FCFCFC"/>
<path d="M911.948 141.839C932.944 149.218 944.446 163.993 946.624 185.462C948.682 205.742 941.036 222.382 924.643 234.504C906.784 247.711 885.273 245.064 868.518 227.609C845.774 203.915 848.041 156.85 889.011 141.883C896.417 139.178 904.026 139.342 911.948 141.839Z" fill="#FDFDFD"/>
</svg>
