<svg width="625" height="819" viewBox="0 0 625 819" fill="none" xmlns="http://www.w3.org/2000/svg">
<path d="M349.723 409.711C392.733 393.737 415.186 362.977 415.186 310.034C415.186 257.091 370.572 210.44 314.827 210.346C255.999 210.253 211.624 256.898 212.332 310.034C213.04 363.169 238.384 398.518 278.941 411.299L207.092 588.06C110.931 563.164 13.1289 449.721 13.1289 310.034C13.1289 144.586 146.066 10.4609 312.691 10.4609C479.316 10.4609 614.389 144.586 614.389 310.034C614.389 451.893 517.514 563.758 419.301 588.555L349.723 409.711Z" fill="#3DA638" stroke="#1C511C" stroke-width="20.4929" stroke-linecap="round" stroke-linejoin="round"/>
<path d="M57.7928 676.573C57.7928 686.555 55.2547 694.346 50.1785 699.947C45.1361 705.512 38.0632 708.295 28.9599 708.295C20.2288 708.295 13.2744 705.441 8.0967 699.732C2.95281 694.023 0.380859 686.304 0.380859 676.573C0.380859 666.628 2.90204 658.908 7.94441 653.415C13.0206 647.886 20.1273 645.121 29.2645 645.121C34.916 645.121 39.9076 646.396 44.2393 648.945C48.571 651.494 51.9044 655.156 54.2394 659.932C56.6083 664.671 57.7928 670.218 57.7928 676.573ZM20.5334 676.573C20.5334 681.815 21.1933 685.819 22.5131 688.583C23.8329 691.312 26.0496 692.677 29.163 692.677C32.2425 692.677 34.4084 691.312 35.6605 688.583C36.9465 685.819 37.5895 681.815 37.5895 676.573C37.5895 671.367 36.9465 667.436 35.6605 664.779C34.3745 662.122 32.1748 660.793 29.0614 660.793C26.0157 660.793 23.8329 662.122 22.5131 664.779C21.1933 667.4 20.5334 671.331 20.5334 676.573Z" fill="black"/>
<path d="M103.581 708.295C100.67 708.295 98.0646 707.792 95.7634 706.787C93.4621 705.746 91.1778 703.897 88.9105 701.24H87.9968C88.6059 705.512 88.9105 708.169 88.9105 709.211V733.715H69.0625V646.198H85.2048L87.9968 653.954H88.9105C92.5992 648.065 97.6923 645.121 104.19 645.121C110.552 645.121 115.544 647.922 119.165 653.523C122.786 659.124 124.596 666.807 124.596 676.573C124.596 686.411 122.701 694.167 118.911 699.84C115.154 705.477 110.044 708.295 103.581 708.295ZM96.9309 661.655C94.0205 661.655 91.9731 662.768 90.7887 664.994C89.6381 667.184 89.012 670.452 88.9105 674.796V676.466C88.9105 681.708 89.5704 685.496 90.8902 687.829C92.21 690.163 94.2913 691.33 97.1339 691.33C99.672 691.33 101.516 690.181 102.667 687.883C103.818 685.55 104.393 681.708 104.393 676.358C104.393 671.116 103.818 667.364 102.667 665.102C101.516 662.804 99.6044 661.655 96.9309 661.655Z" fill="black"/>
<path d="M163.631 708.295C154.054 708.295 146.609 705.602 141.296 700.217C136.017 694.795 133.377 687.093 133.377 677.112C133.377 666.807 135.83 658.908 140.737 653.415C145.644 647.886 152.65 645.121 161.753 645.121C170.416 645.121 177.1 647.527 181.804 652.338C186.542 657.113 188.911 664.007 188.911 673.019V682.39H153.428C153.563 685.801 154.731 688.476 156.931 690.415C159.164 692.353 162.193 693.323 166.017 693.323C169.503 693.323 172.701 692.982 175.611 692.3C178.555 691.582 181.736 690.379 185.154 688.691V703.825C182.041 705.512 178.826 706.679 175.509 707.326C172.193 707.972 168.234 708.295 163.631 708.295ZM162.464 659.447C160.129 659.447 158.166 660.237 156.575 661.817C155.019 663.361 154.105 665.802 153.834 669.141H170.89C170.822 666.197 170.027 663.845 168.504 662.086C167.015 660.327 165.002 659.447 162.464 659.447Z" fill="black"/>
<path d="M236.525 707.218V673.934C236.525 669.877 235.967 666.825 234.85 664.779C233.767 662.696 232.008 661.655 229.571 661.655C226.221 661.655 223.801 663.073 222.312 665.91C220.823 668.746 220.078 673.611 220.078 680.505V707.218H200.23V646.198H215.205L217.693 653.738H218.86C220.552 650.866 222.887 648.712 225.865 647.275C228.877 645.839 232.329 645.121 236.221 645.121C242.583 645.121 247.524 647.078 251.043 650.991C254.597 654.905 256.373 660.416 256.373 667.526V707.218H236.525Z" fill="black"/>
<path d="M336.273 690.254C336.273 696.071 334.277 700.541 330.284 703.664C326.29 706.752 320.571 708.296 313.126 708.296C305.647 708.296 299.64 707.093 295.105 704.688V693.755C301.705 696.986 307.847 698.602 313.532 698.602C320.876 698.602 324.547 696.25 324.547 691.547C324.547 690.039 324.141 688.782 323.329 687.777C322.517 686.771 321.18 685.73 319.319 684.653C317.458 683.576 314.869 682.355 311.552 680.991C305.089 678.334 300.706 675.677 298.405 673.02C296.138 670.363 295.004 666.916 295.004 662.679C295.004 657.581 296.933 653.631 300.791 650.831C304.683 647.994 309.962 646.576 316.629 646.576C323.228 646.576 329.471 647.994 335.36 650.831L331.502 660.363C325.444 657.707 320.351 656.378 316.222 656.378C309.928 656.378 306.781 658.281 306.781 662.087C306.781 663.954 307.593 665.534 309.217 666.826C310.876 668.119 314.463 669.896 319.979 672.158C324.615 674.061 327.982 675.802 330.081 677.382C332.179 678.962 333.735 680.793 334.751 682.876C335.766 684.922 336.273 687.382 336.273 690.254Z" fill="black"/>
<path d="M398.914 677.328C398.914 687.058 396.562 694.652 391.858 700.11C387.154 705.567 380.605 708.296 372.213 708.296C366.967 708.296 362.331 707.039 358.304 704.526C354.277 702.013 351.18 698.404 349.014 693.701C346.849 688.997 345.766 683.54 345.766 677.328C345.766 667.67 348.101 660.13 352.771 654.709C357.441 649.287 364.023 646.576 372.517 646.576C380.639 646.576 387.069 649.359 391.807 654.924C396.545 660.453 398.914 667.921 398.914 677.328ZM358.05 677.328C358.05 691.08 362.839 697.956 372.416 697.956C381.891 697.956 386.629 691.08 386.629 677.328C386.629 663.721 381.857 656.917 372.314 656.917C367.306 656.917 363.668 658.676 361.4 662.195C359.167 665.713 358.05 670.758 358.05 677.328Z" fill="black"/>
<path d="M452.264 707.218L450.589 699.409H449.98C448.322 702.173 445.953 704.346 442.873 705.925C439.827 707.505 436.342 708.295 432.416 708.295C425.614 708.295 420.538 706.5 417.188 702.909C413.837 699.319 412.162 693.879 412.162 686.591V647.652H424.193V684.383C424.193 688.943 425.073 692.371 426.832 694.669C428.592 696.931 431.35 698.062 435.107 698.062C440.115 698.062 443.787 696.482 446.122 693.323C448.491 690.127 449.675 684.796 449.675 677.327V647.652H461.655V707.218H452.264Z" fill="black"/>
<path d="M507.14 646.576C509.542 646.576 511.522 646.756 513.079 647.115L511.911 658.909C510.219 658.479 508.459 658.263 506.632 658.263C501.86 658.263 497.986 659.915 495.008 663.218C492.063 666.521 490.591 670.812 490.591 676.09V707.219H478.662V647.653H488.002L489.576 658.155H490.185C492.046 654.601 494.466 651.782 497.444 649.7C500.456 647.617 503.688 646.576 507.14 646.576Z" fill="black"/>
<path d="M546.174 708.296C537.68 708.296 531.216 705.675 526.783 700.433C522.383 695.155 520.184 687.597 520.184 677.759C520.184 667.742 522.485 660.04 527.087 654.655C531.724 649.269 538.407 646.576 547.138 646.576C553.061 646.576 558.391 647.743 563.128 650.077L559.524 660.256C554.482 658.173 550.319 657.132 547.037 657.132C537.324 657.132 532.468 663.972 532.468 677.652C532.468 684.33 533.669 689.356 536.072 692.731C538.509 696.071 542.062 697.74 546.732 697.74C552.045 697.74 557.071 696.34 561.809 693.539V704.58C559.677 705.908 557.392 706.86 554.956 707.434C552.553 708.009 549.626 708.296 546.174 708.296Z" fill="black"/>
<path d="M599.628 708.296C590.897 708.296 584.061 705.603 579.12 700.217C574.213 694.796 571.76 687.346 571.76 677.867C571.76 668.137 574.044 660.489 578.613 654.924C583.181 649.359 589.459 646.576 597.445 646.576C604.857 646.576 610.711 648.964 615.009 653.739C619.307 658.514 621.456 665.085 621.456 673.451V680.29H584.044C584.213 686.071 585.685 690.523 588.46 693.647C591.235 696.735 595.144 698.279 600.187 698.279C603.503 698.279 606.583 697.956 609.425 697.309C612.302 696.627 615.381 695.514 618.664 693.97V704.257C615.754 705.729 612.809 706.77 609.831 707.38C606.853 707.991 603.452 708.296 599.628 708.296ZM597.445 656.163C593.655 656.163 590.609 657.437 588.308 659.987C586.041 662.536 584.687 666.252 584.247 671.135H609.73C609.662 666.216 608.545 662.5 606.38 659.987C604.214 657.437 601.236 656.163 597.445 656.163Z" fill="black"/>
<path d="M111.905 817.821H99.9763V758.255H111.905V817.821ZM99.2656 742.475C99.2656 740.213 99.8409 738.472 100.992 737.251C102.176 736.03 103.851 735.42 106.017 735.42C108.115 735.42 109.74 736.03 110.89 737.251C112.075 738.472 112.667 740.213 112.667 742.475C112.667 744.629 112.075 746.335 110.89 747.592C109.74 748.812 108.115 749.423 106.017 749.423C103.851 749.423 102.176 748.812 100.992 747.592C99.8409 746.335 99.2656 744.629 99.2656 742.475Z" fill="black"/>
<path d="M178.403 817.82H166.423V781.198C166.423 776.602 165.543 773.173 163.784 770.911C162.058 768.649 159.3 767.518 155.51 767.518C150.467 767.518 146.778 769.098 144.443 772.258C142.108 775.417 140.941 780.713 140.941 788.145V817.82H129.012V758.255H138.352L140.027 766.064H140.636C142.328 763.228 144.731 761.037 147.844 759.494C150.958 757.95 154.41 757.178 158.2 757.178C171.669 757.178 178.403 764.448 178.403 778.99V817.82Z" fill="black"/>
<path d="M206.933 817.821H195.004V758.255H206.933V817.821ZM194.293 742.475C194.293 740.213 194.868 738.472 196.019 737.251C197.203 736.03 198.878 735.42 201.044 735.42C203.142 735.42 204.767 736.03 205.917 737.251C207.102 738.472 207.694 740.213 207.694 742.475C207.694 744.629 207.102 746.335 205.917 747.592C204.767 748.812 203.142 749.423 201.044 749.423C198.878 749.423 197.203 748.812 196.019 747.592C194.868 746.335 194.293 744.629 194.293 742.475Z" fill="black"/>
<path d="M244.953 808.666C247.863 808.666 250.773 808.182 253.684 807.212V816.745C252.364 817.355 250.655 817.858 248.557 818.253C246.492 818.684 244.343 818.899 242.11 818.899C230.807 818.899 225.155 812.58 225.155 799.942V767.843H217.49V762.242L225.714 757.61L229.775 745.008H237.135V758.257H253.125V767.843H237.135V799.726C237.135 802.778 237.846 805.04 239.267 806.512C240.722 807.948 242.617 808.666 244.953 808.666Z" fill="black"/>
<path d="M276.78 817.821H264.851V758.255H276.78V817.821ZM264.141 742.475C264.141 740.213 264.716 738.472 265.867 737.251C267.051 736.03 268.726 735.42 270.892 735.42C272.99 735.42 274.615 736.03 275.765 737.251C276.95 738.472 277.542 740.213 277.542 742.475C277.542 744.629 276.95 746.335 275.765 747.592C274.615 748.812 272.99 749.423 270.892 749.423C268.726 749.423 267.051 748.812 265.867 747.592C264.716 746.335 264.141 744.629 264.141 742.475Z" fill="black"/>
<path d="M329.015 817.82L326.629 809.526H326.223C323.515 813.153 320.791 815.63 318.05 816.959C315.309 818.251 311.789 818.898 307.491 818.898C301.975 818.898 297.66 817.318 294.547 814.158C291.468 810.999 289.928 806.528 289.928 800.748C289.928 794.608 292.077 789.976 296.375 786.853C300.672 783.729 307.221 782.024 316.019 781.736L325.715 781.413V778.236C325.715 774.43 324.869 771.593 323.177 769.726C321.519 767.823 318.93 766.872 315.41 766.872C312.534 766.872 309.776 767.321 307.136 768.218C304.496 769.116 301.958 770.175 299.522 771.396L295.664 762.348C298.71 760.66 302.043 759.386 305.664 758.524C309.285 757.627 312.703 757.178 315.918 757.178C323.058 757.178 328.439 758.829 332.06 762.133C335.715 765.436 337.543 770.624 337.543 777.697V817.82H329.015ZM311.248 809.203C315.58 809.203 319.048 807.929 321.654 805.38C324.294 802.794 325.613 799.186 325.613 794.554V789.384L318.405 789.707C312.788 789.923 308.693 790.928 306.121 792.723C303.583 794.483 302.314 797.193 302.314 800.856C302.314 803.512 303.058 805.577 304.547 807.049C306.036 808.485 308.27 809.203 311.248 809.203Z" fill="black"/>
<path d="M375.107 808.666C378.017 808.666 380.928 808.182 383.838 807.212V816.745C382.518 817.355 380.809 817.858 378.711 818.253C376.647 818.684 374.498 818.899 372.264 818.899C360.961 818.899 355.31 812.58 355.31 799.942V767.843H347.645V762.242L355.868 757.61L359.929 745.008H367.289V758.257H383.28V767.843H367.289V799.726C367.289 802.778 368 805.04 369.421 806.512C370.877 807.948 372.772 808.666 375.107 808.666Z" fill="black"/>
<path d="M406.935 817.821H395.006V758.255H406.935V817.821ZM394.295 742.475C394.295 740.213 394.87 738.472 396.021 737.251C397.205 736.03 398.88 735.42 401.046 735.42C403.144 735.42 404.769 736.03 405.919 737.251C407.104 738.472 407.696 740.213 407.696 742.475C407.696 744.629 407.104 746.335 405.919 747.592C404.769 748.812 403.144 749.423 401.046 749.423C398.88 749.423 397.205 748.812 396.021 747.592C394.87 746.335 394.295 744.629 394.295 742.475Z" fill="black"/>
<path d="M436.834 817.821L415.514 758.256H428.103L439.524 792.886C441.487 798.702 442.671 803.406 443.077 806.996H443.484C443.788 804.411 444.973 799.708 447.037 792.886L458.458 758.256H471.149L449.727 817.821H436.834Z" fill="black"/>
<path d="M504.195 818.898C495.463 818.898 488.628 816.205 483.687 810.819C478.78 805.397 476.326 797.947 476.326 788.469C476.326 778.738 478.61 771.091 483.179 765.526C487.748 759.96 494.025 757.178 502.012 757.178C509.423 757.178 515.278 759.565 519.575 764.341C523.873 769.116 526.022 775.687 526.022 784.052V790.892H488.611C488.78 796.673 490.252 801.125 493.027 804.249C495.802 807.336 499.711 808.88 504.753 808.88C508.069 808.88 511.149 808.557 513.992 807.911C516.868 807.229 519.948 806.116 523.23 804.572V814.858C520.32 816.33 517.376 817.372 514.398 817.982C511.42 818.592 508.019 818.898 504.195 818.898ZM502.012 766.764C498.222 766.764 495.176 768.039 492.875 770.588C490.607 773.137 489.254 776.853 488.814 781.736H514.296C514.229 776.818 513.112 773.101 510.946 770.588C508.78 768.039 505.802 766.764 502.012 766.764Z" fill="black"/>
<path d="M549.689 749.842H552.221C553.471 749.842 554.471 749.521 555.221 748.881C555.986 748.225 556.369 747.396 556.369 746.396C556.369 745.225 556.033 744.389 555.361 743.889C554.689 743.373 553.627 743.115 552.174 743.115H549.689V749.842ZM559.861 746.303C559.861 747.553 559.525 748.662 558.854 749.631C558.197 750.584 557.268 751.295 556.064 751.764L561.643 761.021H557.705L552.854 752.725H549.689V761.021H546.221V740.139H552.338C554.932 740.139 556.83 740.646 558.033 741.662C559.252 742.678 559.861 744.225 559.861 746.303ZM535.088 750.568C535.088 747.443 535.869 744.514 537.432 741.779C538.994 739.045 541.143 736.889 543.877 735.311C546.611 733.732 549.557 732.943 552.713 732.943C555.838 732.943 558.768 733.725 561.502 735.287C564.236 736.85 566.393 738.998 567.971 741.732C569.549 744.467 570.338 747.412 570.338 750.568C570.338 753.646 569.58 756.537 568.064 759.24C566.549 761.943 564.424 764.107 561.689 765.732C558.955 767.357 555.963 768.17 552.713 768.17C549.479 768.17 546.494 767.365 543.76 765.756C541.025 764.131 538.893 761.967 537.361 759.264C535.846 756.561 535.088 753.662 535.088 750.568ZM537.549 750.568C537.549 753.271 538.229 755.803 539.588 758.162C540.947 760.506 542.799 762.357 545.143 763.717C547.502 765.061 550.025 765.732 552.713 765.732C555.432 765.732 557.955 765.053 560.283 763.693C562.611 762.334 564.455 760.498 565.814 758.186C567.189 755.857 567.877 753.318 567.877 750.568C567.877 747.85 567.197 745.326 565.838 742.998C564.479 740.67 562.635 738.826 560.307 737.467C557.994 736.092 555.463 735.404 552.713 735.404C549.994 735.404 547.471 736.084 545.143 737.443C542.814 738.803 540.963 740.646 539.588 742.975C538.229 745.287 537.549 747.818 537.549 750.568Z" fill="black"/>
</svg>
