<svg width="101" height="24" viewBox="0 0 101 24" fill="none" xmlns="http://www.w3.org/2000/svg">
<g clip-path="url(#clip0_261_300)">
<path fill-rule="evenodd" clip-rule="evenodd" d="M17.9217 15.7538L28.1435 22.5637L25.2896 24L16.3417 16.7959L17.9217 15.7538ZM21.7362 8.2689V10.5614L3.01277 23.9632L4.15247 10.2686L5.7744 11.1959V18.8521L21.7362 8.2689ZM0 2.5904L9.29485 9.56019L7.71231 10.7919L2.60058 7.42638L1.74577 22.8232L0.284924 21.3871L0 2.5904ZM27.0317 1.17523L28.4925 2.61218L28.7774 21.2559L19.6008 14.3614L21.0653 13.2074L26.177 16.5731L27.0317 1.17523ZM25.7647 0.0359892L24.625 13.7308L23.0032 12.6611V5.14818L7.0414 15.7313V13.4382L25.7647 0.0359892ZM3.48903 0L12.4359 7.20345L10.9737 8.16795L0.752283 1.35824L3.48903 0Z" fill="#3C4AC3"/>
<path fill-rule="evenodd" clip-rule="evenodd" d="M37.7901 17.666L39.5356 22.5625L41.317 17.666H42.5076V23.9097H41.4513V19.7875L40.0146 23.9097H39.1194L37.6558 19.7741V23.9097H36.5996V17.666H37.7901ZM47.2815 21.6405C47.2815 21.8434 47.3068 22.0343 47.3576 22.2134C47.4083 22.3924 47.4806 22.549 47.5746 22.6833C47.6686 22.8176 47.7828 22.9236 47.917 23.0011C48.0513 23.0788 48.202 23.1175 48.3691 23.1175C48.5361 23.1175 48.6876 23.0788 48.8234 23.0011C48.9591 22.9236 49.0747 22.8176 49.1703 22.6833C49.2657 22.549 49.3388 22.3924 49.3895 22.2134C49.4403 22.0343 49.4657 21.8434 49.4657 21.6405C49.4657 21.4376 49.4403 21.2459 49.3895 21.0653C49.3388 20.8849 49.2657 20.7274 49.1703 20.5932C49.0747 20.4589 48.9591 20.3522 48.8234 20.2731C48.6876 20.1941 48.5361 20.1545 48.3691 20.1545C48.202 20.1545 48.0513 20.1941 47.917 20.2731C47.7828 20.3522 47.6686 20.4589 47.5746 20.5932C47.4806 20.7274 47.4083 20.8849 47.3576 21.0653C47.3068 21.2459 47.2815 21.4376 47.2815 21.6405ZM46.2252 21.6405C46.2252 21.3153 46.2729 21.0087 46.3684 20.7207C46.4639 20.4328 46.6026 20.1807 46.7847 19.9643C46.9666 19.748 47.1912 19.5772 47.4583 19.4518C47.7253 19.3265 48.0289 19.2638 48.3691 19.2638C48.7092 19.2638 49.0128 19.3265 49.2799 19.4518C49.5469 19.5772 49.7722 19.748 49.9558 19.9643C50.1393 20.1807 50.2795 20.4328 50.3764 20.7207C50.4734 21.0087 50.522 21.3153 50.522 21.6405C50.522 21.9627 50.4742 22.2671 50.3787 22.5535C50.2832 22.84 50.1437 23.0906 49.9602 23.3055C49.7767 23.5203 49.5514 23.6897 49.2844 23.8135C49.0173 23.9373 48.7137 23.9992 48.3736 23.9992C48.0334 23.9992 47.7297 23.9373 47.4627 23.8135C47.1957 23.6897 46.9704 23.5203 46.7869 23.3055C46.6034 23.0906 46.4639 22.84 46.3684 22.5535C46.2729 22.2671 46.2252 21.9627 46.2252 21.6405ZM56.5924 21.5823C56.5863 21.3854 56.5617 21.2004 56.5185 21.0273C56.4752 20.8543 56.4133 20.7029 56.3328 20.573C56.2522 20.4432 56.1552 20.3411 56.0418 20.2664C55.9284 20.1919 55.7986 20.1546 55.6524 20.1546C55.5003 20.1546 55.3644 20.1941 55.2452 20.2731C55.1258 20.3523 55.0258 20.4589 54.9453 20.5931C54.8647 20.7275 54.8035 20.8849 54.7618 21.0653C54.7199 21.2459 54.6991 21.4391 54.6991 21.645C54.6991 21.8509 54.7199 22.0441 54.7618 22.2245C54.8035 22.4051 54.8647 22.5633 54.9453 22.699C55.0258 22.8348 55.1258 22.9415 55.2452 23.019C55.3644 23.0966 55.5003 23.1354 55.6524 23.1354C55.8017 23.1354 55.9344 23.0966 56.0508 23.019C56.1671 22.9415 56.2656 22.8348 56.3462 22.699C56.4268 22.5633 56.4879 22.4051 56.5297 22.2245C56.5714 22.0441 56.5924 21.8509 56.5924 21.645V21.5823ZM57.6487 23.9097H56.5924V23.4084C56.5237 23.5158 56.4453 23.6076 56.3574 23.6837C56.2693 23.7598 56.1784 23.821 56.0844 23.8671C55.9904 23.9134 55.8956 23.947 55.8002 23.9679C55.7046 23.9888 55.6136 23.9992 55.5271 23.9992C55.2347 23.9992 54.9721 23.938 54.7394 23.8157C54.5066 23.6934 54.3089 23.5263 54.1463 23.3144C53.9837 23.1026 53.8591 22.8534 53.7726 22.567C53.686 22.2805 53.6428 21.9732 53.6428 21.645C53.6428 21.3197 53.6809 21.0124 53.757 20.723C53.833 20.4336 53.9472 20.1807 54.0994 19.9643C54.2515 19.748 54.4402 19.5772 54.6655 19.4518C54.8908 19.3265 55.1511 19.2638 55.4466 19.2638C55.551 19.2638 55.6569 19.2781 55.7644 19.3064C55.8718 19.3348 55.9754 19.3765 56.0754 19.4317C56.1753 19.4869 56.2693 19.5555 56.3574 19.6376C56.4453 19.7197 56.5237 19.8129 56.5924 19.9173V17.6705H57.6487V23.9097ZM64.198 21.1123C64.1801 20.9691 64.1435 20.8394 64.0883 20.7229C64.0331 20.6066 63.9608 20.5059 63.8712 20.4209C63.7817 20.3358 63.6758 20.2702 63.5534 20.2239C63.4311 20.1777 63.2968 20.1545 63.1506 20.1545C63.0164 20.1545 62.8917 20.1799 62.7769 20.2306C62.662 20.2814 62.5606 20.35 62.4726 20.4365C62.3845 20.5231 62.3114 20.6245 62.2533 20.7408C62.195 20.8572 62.1555 20.9811 62.1346 21.1123H64.198ZM62.1346 21.9135C62.1525 22.0776 62.1913 22.2335 62.251 22.3812C62.3107 22.5289 62.3867 22.6588 62.4793 22.7706C62.5718 22.8825 62.6792 22.9713 62.8015 23.0369C62.9238 23.1026 63.0551 23.1354 63.1954 23.1354C63.455 23.1354 63.6705 23.0645 63.8421 22.9228C64.0137 22.7811 64.1502 22.5685 64.2517 22.285H65.2274C65.1677 22.5565 65.0715 22.7983 64.9387 23.0101C64.8059 23.2219 64.6485 23.401 64.4665 23.5471C64.2844 23.6934 64.0839 23.8053 63.8645 23.8829C63.6452 23.9604 63.4192 23.9992 63.1864 23.9992C62.8582 23.9992 62.5628 23.9335 62.3002 23.8023C62.0376 23.671 61.8138 23.495 61.6289 23.2742C61.4439 23.0534 61.3014 22.796 61.2015 22.5021C61.1014 22.2082 61.0515 21.8986 61.0515 21.5734C61.0515 21.269 61.1014 20.9774 61.2015 20.6983C61.3014 20.4194 61.4439 20.1732 61.6289 19.9598C61.8138 19.7465 62.0384 19.5772 62.3025 19.4518C62.5666 19.3265 62.8626 19.2639 63.1909 19.2639C63.5072 19.2639 63.7936 19.3206 64.0503 19.4339C64.3069 19.5474 64.5262 19.7047 64.7082 19.9061C64.8902 20.1075 65.0297 20.3448 65.1267 20.6178C65.2236 20.8908 65.2722 21.1855 65.2722 21.5018V21.9135H62.1346ZM68.8999 23.9097H69.9562V17.6705H68.8999V23.9097ZM75.2413 23.0056H76.7184C76.8527 23.0056 76.9877 22.9877 77.1235 22.9518C77.2592 22.916 77.3815 22.8601 77.4904 22.784C77.5993 22.708 77.6881 22.611 77.7568 22.4931C77.8254 22.3752 77.8597 22.2329 77.8597 22.0657C77.8597 21.9284 77.8284 21.7971 77.7657 21.6718C77.703 21.5465 77.6128 21.4376 77.4949 21.3451C77.377 21.2526 77.2331 21.1788 77.063 21.1235C76.893 21.0684 76.702 21.0407 76.4901 21.0407H75.2413V23.0056ZM75.2413 20.1545H76.5662C76.7123 20.1545 76.8474 20.1314 76.9712 20.0852C77.0951 20.0389 77.2018 19.9763 77.2913 19.8972C77.3808 19.8182 77.4502 19.7256 77.4994 19.6197C77.5486 19.5138 77.5732 19.4026 77.5732 19.2862C77.5732 19.1788 77.5553 19.0811 77.5195 18.9931C77.4837 18.9051 77.4292 18.8282 77.3562 18.7626C77.283 18.697 77.1898 18.6462 77.0765 18.6104C76.963 18.5746 76.8303 18.5567 76.6781 18.5567H75.2413V20.1545ZM74.1851 17.666H76.7139C77.0063 17.666 77.2681 17.7078 77.4994 17.7913C77.7306 17.8749 77.9261 17.9875 78.0857 18.1292C78.2453 18.271 78.3677 18.4359 78.4528 18.6238C78.5378 18.8118 78.5803 19.0117 78.5803 19.2236C78.5803 19.4861 78.5213 19.7301 78.4035 19.9554C78.2856 20.1807 78.1074 20.3828 77.8687 20.5618C78.0596 20.6424 78.2222 20.7387 78.3566 20.8505C78.4908 20.9624 78.6004 21.0848 78.6854 21.2175C78.7705 21.3503 78.8332 21.4913 78.8735 21.6405C78.9137 21.7897 78.9339 21.9419 78.9339 22.097C78.9339 22.3476 78.8802 22.5834 78.7727 22.8042C78.6653 23.025 78.5213 23.2168 78.3409 23.3793C78.1603 23.542 77.9521 23.671 77.7165 23.7665C77.4807 23.862 77.236 23.9097 76.9825 23.9097H74.1851V17.666ZM85.1254 21.1123C85.1075 20.9691 85.0709 20.8394 85.0158 20.7229C84.9605 20.6066 84.8883 20.5059 84.7987 20.4209C84.7091 20.3358 84.6033 20.2702 84.4809 20.2239C84.3585 20.1777 84.2243 20.1545 84.0781 20.1545C83.9438 20.1545 83.8192 20.1799 83.7043 20.2306C83.5895 20.2814 83.488 20.35 83.4 20.4365C83.312 20.5231 83.2389 20.6245 83.1808 20.7408C83.1225 20.8572 83.083 20.9811 83.0621 21.1123H85.1254ZM83.0621 21.9135C83.08 22.0776 83.1188 22.2335 83.1785 22.3812C83.2381 22.5289 83.3142 22.6588 83.4067 22.7706C83.4993 22.8825 83.6066 22.9713 83.729 23.0369C83.8513 23.1026 83.9826 23.1354 84.1228 23.1354C84.3825 23.1354 84.598 23.0645 84.7696 22.9228C84.9412 22.7811 85.0777 22.5685 85.1791 22.285H86.1549C86.0951 22.5565 85.9989 22.7983 85.8662 23.0101C85.7334 23.2219 85.5759 23.401 85.394 23.5471C85.2119 23.6934 85.0113 23.8053 84.792 23.8829C84.5727 23.9604 84.3467 23.9992 84.1139 23.9992C83.7856 23.9992 83.4902 23.9335 83.2277 23.8023C82.9651 23.671 82.7413 23.495 82.5563 23.2742C82.3713 23.0534 82.2288 22.796 82.1289 22.5021C82.0289 22.2082 81.979 21.8986 81.979 21.5734C81.979 21.269 82.0289 20.9774 82.1289 20.6983C82.2288 20.4194 82.3713 20.1732 82.5563 19.9598C82.7413 19.7465 82.9659 19.5772 83.23 19.4518C83.494 19.3265 83.7901 19.2639 84.1184 19.2639C84.4347 19.2639 84.7211 19.3206 84.9778 19.4339C85.2344 19.5474 85.4537 19.7047 85.6357 19.9061C85.8177 20.1075 85.9571 20.3448 86.0542 20.6178C86.1511 20.8908 86.1996 21.1855 86.1996 21.5018V21.9135H83.0621ZM91.3871 22.285C91.3901 22.4402 91.414 22.5722 91.4587 22.6811C91.5035 22.79 91.5631 22.8781 91.6378 22.9452C91.7123 23.0123 91.7973 23.0609 91.8929 23.0906C91.9883 23.1205 92.0898 23.1354 92.1973 23.1354C92.2986 23.1354 92.3979 23.1272 92.4949 23.1108C92.5918 23.0944 92.6784 23.0668 92.7544 23.028C92.8306 22.9892 92.891 22.937 92.9358 22.8713C92.9805 22.8057 93.0029 22.7221 93.0029 22.6207C93.0029 22.5372 92.976 22.464 92.9223 22.4014C92.8686 22.3387 92.7977 22.2813 92.7097 22.229C92.6217 22.1769 92.521 22.1299 92.4076 22.088C92.2941 22.0463 92.1778 22.0046 92.0585 21.9627C91.8764 21.9001 91.6915 21.8307 91.5035 21.7546C91.3155 21.6786 91.1454 21.5861 90.9933 21.4771C90.8411 21.3683 90.7165 21.2384 90.6196 21.0877C90.5225 20.9371 90.4741 20.7543 90.4741 20.5395C90.4741 20.3246 90.5173 20.1374 90.6039 19.9777C90.6903 19.8182 90.8082 19.6854 90.9575 19.5794C91.1066 19.4735 91.2834 19.3944 91.4879 19.3422C91.6922 19.29 91.9138 19.2638 92.1524 19.2638C92.415 19.2638 92.6538 19.2937 92.8686 19.3534C93.0834 19.4131 93.2677 19.5033 93.4214 19.6242C93.575 19.745 93.6958 19.8994 93.7839 20.0874C93.8719 20.2754 93.9219 20.4962 93.9338 20.7498H92.891C92.876 20.6365 92.8469 20.5417 92.8037 20.4656C92.7604 20.3895 92.7059 20.3284 92.6403 20.2821C92.5747 20.2359 92.5001 20.2031 92.4165 20.1836C92.333 20.1643 92.2449 20.1545 92.1524 20.1545C91.9466 20.1545 91.7892 20.1911 91.6803 20.2642C91.5713 20.3374 91.5169 20.4336 91.5169 20.5529C91.5169 20.6275 91.5438 20.6947 91.5975 20.7543C91.6512 20.814 91.722 20.8692 91.8101 20.9199C91.8981 20.9707 91.9988 21.0176 92.1122 21.0609C92.2256 21.1042 92.3434 21.1482 92.4658 21.1929C92.6478 21.2586 92.8335 21.3302 93.023 21.4077C93.2125 21.4854 93.3833 21.5763 93.5355 21.6808C93.6876 21.7852 93.8122 21.9083 93.9093 22.05C94.0061 22.1917 94.0547 22.3581 94.0547 22.549C94.0547 22.8057 94.0032 23.0257 93.9002 23.2092C93.7974 23.3928 93.6586 23.5427 93.484 23.659C93.3095 23.7754 93.1073 23.8612 92.8776 23.9164C92.6478 23.9716 92.406 23.9992 92.1524 23.9992C91.9108 23.9992 91.6803 23.9634 91.4609 23.8918C91.2417 23.8202 91.0492 23.7135 90.8836 23.5718C90.718 23.4301 90.5844 23.2517 90.483 23.0369C90.3815 22.8221 90.3264 22.5714 90.3174 22.285H91.3871ZM99.8075 18.1002V19.3534H100.644V20.2172H99.8075V22.6968C99.8075 22.8221 99.8366 22.9266 99.8948 23.0101C99.9529 23.0937 100.034 23.1354 100.139 23.1354C100.171 23.1354 100.237 23.1302 100.336 23.1197C100.434 23.1093 100.57 23.0698 100.743 23.0011V23.8336C100.558 23.9052 100.383 23.9507 100.217 23.9701C100.051 23.9895 99.9149 23.9992 99.8075 23.9992C99.6672 23.9992 99.533 23.9708 99.4047 23.9142C99.2763 23.8576 99.1637 23.7777 99.0668 23.6747C98.9698 23.5718 98.8929 23.4472 98.8363 23.301C98.7795 23.1548 98.7512 22.9922 98.7512 22.8131V20.2172H98.1022V19.3534H98.7512V18.1002H99.8075Z" fill="#3C4AC3"/>
<path fill-rule="evenodd" clip-rule="evenodd" d="M63.1426 8.05422e-05V1.1429H60.2856V2.8572H60.8569V3.42861L60.8574 3.47584C60.8626 3.7595 60.9135 4.03187 61.0034 4.28602L59.9998 4.28573V6.00003H63.1426V7.14285H60.2856V8.85715H63.1426V10.5715H64.8569V8.85715H67.7141V7.14285H64.8569V6.00003H67.9998V4.28573L66.9962 4.28602C67.0861 4.03187 67.1371 3.7595 67.1422 3.47584L67.1427 3.42861V2.8572H67.7141V1.1429H64.8569V8.05422e-05H63.1426ZM63.3963 4.28514C62.9378 4.2683 62.5713 3.89129 62.5713 3.42861V2.8572H65.4283V3.42861L65.427 3.47782C65.4021 3.91772 65.0455 4.26889 64.6034 4.28514L64.5712 4.28573H63.4283L63.3963 4.28514ZM52.8819 0.571491L52.8614 7.14014L52.8607 7.16892C52.8448 7.47293 52.5933 7.71426 52.2856 7.71426V9.42857L52.3311 9.4282C53.5284 9.40484 54.501 8.46257 54.5716 7.27663L54.5713 10.5715H57.1428L57.2185 10.5703C58.6036 10.5302 59.7141 9.39481 59.7141 8.00004V6.00003H54.579L54.5909 2.28579H57.9999V2.57149L57.9993 2.60364C57.9824 3.06215 57.6054 3.42861 57.1428 3.42861H55.2062V5.14284H57.1428L57.1899 5.14248C58.5883 5.11729 59.7141 3.97586 59.7141 2.57149V0.571491H52.8819ZM56.2856 7.71426H57.9999V8.00004L57.9993 8.03218L57.9961 8.08095C57.9554 8.51639 57.5888 8.85715 57.1428 8.85715H56.2856V7.71426ZM36 0.571491V2.28579H42.7142V3.14291L42.7128 3.19219C42.688 3.63202 42.3313 3.98311 41.8892 3.99951L41.8571 4.0001H36.5714V16H47.9999L48.0758 15.9988C49.4608 15.9587 50.5713 14.8234 50.5713 13.4286V4.0001L44.2822 4.00032C44.3719 3.74624 44.423 3.47379 44.4281 3.19014L44.4285 3.14291V2.28579H51.1427V0.571491H36ZM47.1428 5.71433H48.857V13.4286L48.8564 13.4607L48.8533 13.5095C48.8126 13.9449 48.446 14.2856 47.9999 14.2856H47.1428V5.71433ZM41.7142 7.42863H45.4285V5.71433H41.7142V7.42863ZM38.2857 14.2856H40V5.71433H38.2857V14.2856ZM41.7142 10.8572H45.4285V9.14286H41.7142V10.8572ZM41.7142 14.2857H45.4285V12.5714H41.7142V14.2857ZM59.2856 10.2857V11.4286H53.1427V13.1429H59.2856V14.2856H52.2856V16H67.9998V14.2856H60.9998V13.1429H67.1427V11.4286H60.9998V10.2857H59.2856ZM83.7401 9.14286V13.7142L83.7353 13.8775C83.6655 15.0637 82.8357 16 81.6282 16H69.7138V9.14286H83.7401ZM95.1687 7.42854L95.1683 9.369L98.0258 9.3691C98.656 9.3691 99.1686 8.85642 99.1686 8.22628H100.883C100.883 9.80176 99.6012 11.0834 98.0258 11.0834L95.1683 11.083L95.1687 14.2856H98.3115C98.7841 14.2856 99.1686 13.9011 99.1686 13.4285V12H100.883V13.4285C100.883 14.8463 99.7295 15.9999 98.3115 15.9999H93.4544V7.42854H95.1687ZM92.883 5.14283V13.3766C92.883 14.7944 91.7295 15.948 90.3116 15.948H89.1427V14.2337H90.3116C90.7842 14.2337 91.1687 13.8492 91.1687 13.3766L91.1683 12.571H87.1683L87.1687 15.9999H85.4544V5.14283H92.883ZM82.0258 10.8571H71.428L71.428 11.7142H82.0225V13.4285H71.428L71.428 14.2856H81.6282C81.9431 14.2856 82.0258 14.0294 82.0258 13.7142V10.8571ZM91.1683 9.714H87.1683V10.857H91.1683V9.714ZM71.7137 2.92881e-05V1.14285L76.5708 1.14283V2.85713L73.9993 2.857V4.285L76.5708 4.28566V5.99996L73.9865 5.99997C73.8417 7.59956 72.4933 8.85709 70.8566 8.85709H69.1423V7.14279H70.8566C71.5466 7.14279 72.1239 6.65101 72.2565 5.99962L69.1424 5.99996V4.28566L72.2843 4.285V2.857L71.0567 2.85787C70.5856 3.38323 69.9019 3.71427 69.1423 3.71427V1.99996C69.615 1.99996 69.9995 1.61549 69.9995 1.14285V2.92881e-05H71.7137ZM76.5708 6.85707V8.57138H74.2851V6.85707H76.5708ZM84.3116 1.1429V6.28574C84.3116 7.49553 83.3718 8.48576 82.1824 8.56618L82.026 8.57145H77.1423V1.1429H84.3116ZM91.1687 6.85713H87.1687L87.1683 7.999H91.1683L91.1687 6.85713ZM82.5973 2.85717H78.8565V6.85712H82.0259C82.3409 6.85712 82.5973 6.60085 82.5973 6.28571V2.85717ZM95.1687 5.12541e-05L95.1683 1.714L98.5972 1.71427C98.9122 1.71427 99.1686 1.458 99.1686 1.14286H100.883C100.883 2.4032 99.8576 3.42858 98.5972 3.42858L95.1683 3.428L95.1687 5.14281H98.3115C98.7841 5.14281 99.1686 4.75834 99.1686 4.2857V4.17397H100.883V4.2857C100.883 5.70353 99.7295 6.85712 98.3115 6.85712H93.4544V5.12541e-05H95.1687ZM85.4544 4.57143V2.43794L87.6801 0.706794C87.8997 0.535898 88.0258 0.27831 88.0258 0H89.7401C89.7401 0.811133 89.3729 1.56193 88.7326 2.05998L87.7078 2.85712L91.1196 2.85679C91.0016 2.52438 90.6839 2.28571 90.3116 2.28571V0.571483C91.7295 0.571483 92.883 1.72499 92.883 3.14283V4.57143H85.4544Z" fill="#3C4AC3"/>
</g>
<defs>
<clipPath id="clip0_261_300">
<rect width="101" height="24" fill="white"/>
</clipPath>
</defs>
</svg>
