<svg width="1915" height="360" viewBox="0 0 1915 360" fill="none" xmlns="http://www.w3.org/2000/svg">
<path d="M40.1 240.3H0.5V37.7998H40.1V240.3ZM40.7 139.7L102 37.7998H146.2L81.2 138.3L146.2 240.2H102L40.7 139.7Z" fill="black"/>
<path d="M281.6 158.1V240.3H242V37.7998H281.6V120H346.9V37.7998H386.5V240.3H346.9V158.1H281.6Z" fill="black"/>
<path d="M542.6 240.3H503V37.7998H551.1C566.4 37.7998 577.8 38.2998 585.3 39.3998C592.8 40.4998 599.2 42.1998 604.4 44.5998C615.9 49.9998 624.7 57.4998 630.7 67.0998C636.7 76.7998 639.8 88.0998 639.8 101.1C639.8 116.8 635.5 130.1 626.9 141C618.3 151.9 606.6 158.8 591.8 161.8L642.4 240.3H595.2L542.7 146.4L542.6 240.3ZM542.6 136.5H551.4C567.5 136.5 579.7 133.6 588.1 127.8C596.4 122 600.6 113.5 600.6 102.4C600.6 91.5998 597.1 83.6998 590.1 78.5998C583.1 73.4998 572.2 70.8998 557.4 70.8998H542.6V136.5Z" fill="black"/>
<path d="M1201.7 240.3H1162.8V37.7998H1200.4L1284.2 167.1V37.7998H1323.1V240.3H1286.3L1201.7 107.1V240.3Z" fill="black"/>
<path d="M1431.1 138.6C1431.1 127.5 1432.6 117 1435.6 107.1C1438.6 97.1998 1443 87.9998 1448.8 79.3998C1458.8 64.7998 1471.4 53.5998 1486.5 45.6998C1501.6 37.7998 1518.1 33.7998 1536 33.7998C1549.5 33.7998 1562.4 36.3998 1574.9 41.5998C1587.4 46.7998 1598.5 54.2998 1608.4 63.9998C1618.5 74.0998 1626.2 85.4998 1631.5 98.0998C1636.8 110.7 1639.4 124 1639.4 137.9C1639.4 152.4 1636.9 165.9 1631.9 178.6C1626.9 191.3 1619.6 202.6 1610 212.4C1600.3 222.7 1588.9 230.6 1576 236.1C1563.1 241.6 1549.5 244.4 1535.4 244.4C1520.3 244.4 1506.4 241.7 1493.6 236.3C1480.9 230.9 1469.6 222.9 1459.8 212.4C1450.3 202.4 1443.2 191.2 1438.3 178.7C1433.5 166.1 1431.1 152.8 1431.1 138.6ZM1472.5 137.2C1472.5 145.9 1473.9 154 1476.8 161.5C1479.7 169 1483.9 175.9 1489.6 182.1C1495.8 188.9 1502.9 194.1 1510.8 197.7C1518.7 201.3 1526.9 203.2 1535.3 203.2C1553 203.2 1567.9 196.9 1579.9 184.3C1591.9 171.7 1597.9 156 1597.9 137.2C1597.9 120 1591.8 105.3 1579.7 93.0998C1567.6 80.8998 1553 74.7998 1536 74.7998C1518.3 74.7998 1503.2 80.8998 1490.9 92.9998C1478.7 105.2 1472.5 119.9 1472.5 137.2Z" fill="black"/>
<path d="M1735 177.599L1771.3 177.499V180.399C1771.3 188.899 1773.5 195.699 1777.9 200.799C1782.3 205.899 1788.2 208.499 1795.5 208.499C1803.4 208.499 1809.6 206.099 1814.2 201.399C1818.8 196.599 1821.1 190.199 1821.1 181.999C1821.1 168.999 1811.8 159.599 1793.2 153.999C1790.8 153.299 1788.9 152.699 1787.5 152.199C1771.8 147.299 1760.1 140.299 1752.5 131.299C1744.9 122.299 1741.1 110.799 1741.1 96.9994C1741.1 77.9994 1746.4 62.6994 1756.9 51.1994C1767.4 39.6994 1781.4 33.8994 1799 33.8994C1815.4 33.8994 1828.5 38.9994 1838.2 49.1994C1847.9 59.3994 1853.4 73.7994 1854.5 92.1994H1818.6V90.4994C1818.6 84.0994 1816.6 78.8994 1812.7 74.9994C1808.8 71.0994 1803.7 69.0994 1797.4 69.0994C1790.9 69.0994 1785.8 71.0994 1782 75.1994C1778.2 79.2994 1776.4 84.7994 1776.4 91.7994C1776.4 94.7994 1776.8 97.3994 1777.6 99.5994C1778.4 101.899 1779.6 103.899 1781.3 105.699C1785.1 109.899 1793.3 113.699 1805.8 117.299C1811.4 118.799 1815.6 119.999 1818.6 121.099C1832.5 125.799 1842.8 132.599 1849.4 141.399C1856 150.199 1859.3 161.499 1859.3 175.199C1859.3 196.099 1853.5 212.799 1841.9 225.499C1830.3 238.199 1814.9 244.499 1795.8 244.499C1777.7 244.499 1763.2 238.399 1752 226.199C1741 213.799 1735.3 197.599 1735 177.599Z" fill="black"/>
<path d="M1345.3 281.199L1339.9 287.199C1337.3 284.899 1334.6 283.199 1331.9 282.199C1329.2 281.099 1326.4 280.599 1323.3 280.599C1317.1 280.599 1311.9 282.699 1307.8 287.099C1303.6 291.399 1301.6 296.699 1301.6 302.999C1301.6 309.299 1303.7 314.599 1307.8 318.899C1312 323.199 1317.1 325.399 1323.3 325.399C1326 325.399 1328.6 324.999 1331.1 324.099C1333.5 323.199 1335.8 321.899 1337.9 320.199V306.799H1325.9V298.899H1346.5V324.899C1342.7 327.799 1338.9 329.999 1335.1 331.499C1331.3 332.899 1327.4 333.699 1323.3 333.699C1314.5 333.699 1307.2 330.799 1301.4 324.999C1295.6 319.199 1292.7 311.899 1292.7 303.099C1292.7 299.199 1293.4 295.499 1294.8 291.899C1296.2 288.299 1298.2 285.099 1300.7 282.299C1303.6 279.099 1307 276.699 1310.8 274.999C1314.6 273.299 1318.8 272.499 1323.3 272.499C1327.6 272.499 1331.7 273.299 1335.6 274.799C1339.5 276.299 1342.8 278.399 1345.3 281.199Z" fill="black"/>
<path d="M1429.8 273.899H1440.9C1444 273.899 1446.6 274.099 1448.6 274.399C1450.6 274.799 1452.4 275.299 1453.9 276.099C1456.4 277.399 1458.4 279.399 1459.8 281.999C1461.2 284.599 1462 287.599 1462 290.799C1462 294.599 1460.8 297.899 1458.3 300.699C1455.8 303.499 1452.5 305.199 1448.4 305.899L1466.1 329.899L1457.9 333.399L1438.4 305.099V331.999L1429.7 332.699L1429.8 273.899ZM1438.5 281.599V299.999H1441.6C1445.3 299.999 1448.2 299.199 1450.3 297.499C1452.3 295.799 1453.4 293.499 1453.4 290.499C1453.4 287.499 1452.4 285.299 1450.5 283.799C1448.6 282.299 1445.7 281.499 1441.9 281.499H1438.5V281.599Z" fill="black"/>
<path d="M1573.1 272.399C1576.9 272.399 1580.5 272.999 1583.9 274.299C1587.3 275.499 1590.4 277.299 1593 279.699C1596.4 282.799 1599.1 286.299 1600.9 290.299C1602.7 294.299 1603.6 298.599 1603.6 302.999C1603.6 306.799 1602.9 310.599 1601.5 314.199C1600.1 317.799 1598.1 320.999 1595.5 323.899C1592.6 327.099 1589.3 329.499 1585.4 331.199C1581.6 332.899 1577.4 333.699 1572.9 333.699C1569.1 333.699 1565.5 333.099 1562 331.799C1558.6 330.599 1555.6 328.799 1553 326.399C1549.5 323.299 1546.9 319.799 1545.1 315.699C1543.3 311.699 1542.3 307.399 1542.3 302.999C1542.3 298.599 1543.2 294.299 1545.1 290.299C1546.9 286.299 1549.6 282.699 1553 279.699C1555.6 277.399 1558.6 275.599 1562 274.299C1565.6 272.999 1569.2 272.399 1573.1 272.399ZM1573.1 280.499C1566.9 280.499 1561.7 282.599 1557.6 286.999C1553.4 291.299 1551.4 296.599 1551.4 302.899C1551.4 309.199 1553.5 314.499 1557.6 318.799C1561.8 323.099 1566.9 325.199 1573.2 325.199C1579.4 325.199 1584.5 322.999 1588.7 318.699C1592.9 314.399 1595 309.099 1595 302.799C1595 296.499 1592.9 291.199 1588.8 286.899C1584.5 282.699 1579.3 280.499 1573.1 280.499Z" fill="black"/>
<path d="M1694.2 273.1V306.1C1694.2 313.1 1695.1 318 1696.9 320.9C1698.7 323.7 1701.7 325.1 1706 325.1C1710.3 325.1 1713.4 323.8 1715.3 321.1C1717.2 318.4 1718.2 314 1718.2 307.8V274L1726.6 273.2V309.8C1726.6 314.5 1726.3 318.2 1725.6 320.7C1724.9 323.2 1723.7 325.4 1722.1 327.3C1720.5 329.2 1718.2 330.7 1715.4 331.9C1712.6 333 1709.6 333.6 1706.5 333.6C1699.5 333.6 1694.2 331.6 1690.8 327.7C1687.3 323.8 1685.6 317.8 1685.6 309.8V274.1L1694.2 273.1Z" fill="black"/>
<path d="M1811.5 273.899H1826.9C1833.5 273.899 1838.6 275.399 1842.1 278.399C1845.6 281.399 1847.3 285.799 1847.3 291.499C1847.3 296.899 1845.3 301.199 1841.3 304.399C1837.3 307.599 1831.8 309.099 1824.8 309.099C1823.9 309.099 1822.4 308.999 1820.4 308.899C1820.3 308.899 1820.2 308.899 1820.2 308.899V331.899L1811.5 332.599V273.899ZM1820.2 281.599V300.999C1821 301.099 1821.8 301.199 1822.6 301.299C1823.5 301.399 1824.4 301.399 1825.5 301.399C1829.7 301.399 1832.9 300.599 1835.1 298.899C1837.3 297.199 1838.4 294.799 1838.4 291.499C1838.4 288.099 1837.4 285.599 1835.4 283.999C1833.4 282.399 1830.2 281.599 1825.9 281.599H1820.2Z" fill="black"/>
<path d="M888.5 227.1C819 224.6 724.1 192.9 704.4 147.1C687.4 105.4 704.3 56.8996 784.5 22.3996C832.1 2.59962 904.1 -3.00038 959.6 2.09962C1038.3 9.29962 1113.3 49.9996 1113.4 50.1996V107.3L1113.3 111.1C1113.3 111.1 1088.9 88.9996 1058.4 71.1996C1029.7 54.3996 1003.4 42.5996 951.2 37.7996C939 36.6996 918.2 33.8996 884.5 38.5996C870.9 40.4996 851.7 41.8996 808.5 60.8996C794.5 67.5996 781.6 74.6996 771.6 82.9996C766.4 87.2996 759.3 93.3996 754.3 98.5996C742 114 735.5 125.6 738.6 146.6C742.2 162.4 749.2 172.3 769.5 187.4C778.3 194 779.3 193.9 783.2 195.9C819.5 214.7 848.5 221.6 889.9 226.8" fill="#CC3333"/>
<path d="M892.3 49.1001C962 48.8001 1060.8 76.7 1086.5 121.7C1109 162.6 1098.6 211.7 1023.2 249.2C978.4 270.9 907.3 279.3 851.3 276.4C771.8 272.3 691.6 234.6 691.5 234.5L683.9 177.6L683.4 173.8C683.4 173.8 710.7 194.9 743.5 211.5C774.4 227.1 802.2 237.9 854.9 240.6C867.2 241.3 888.3 243.1 921.3 237.2C934.6 234.8 953.6 232.6 994.1 212C1007.2 204.8 1019.1 197.2 1027.9 188.5C1032.5 184 1038.8 177.6 1043.1 172.3C1053.3 156.4 1058.3 144.6 1052.4 123.8C1046.7 108.2 1038.4 98.6 1016.2 84.3C1006.6 78.1 1005.6 78.2 1001.4 76.3C962.7 59 932.9 53.3 890.8 49.7" fill="#CC3333"/>
<path d="M1915 53.6996C1915 57.3996 1914.1 60.7996 1912.2 63.9996C1910.4 67.1996 1907.8 69.6996 1904.7 71.4996C1901.5 73.2996 1898.1 74.2996 1894.4 74.2996C1890.7 74.2996 1887.3 73.3996 1884.1 71.4996C1880.9 69.6996 1878.4 67.1996 1876.6 63.9996C1874.8 60.7996 1873.8 57.3996 1873.8 53.6996C1873.8 49.9996 1874.7 46.5996 1876.6 43.3996C1878.4 40.1996 1881 37.6996 1884.1 35.8996C1887.3 34.0996 1890.7 33.0996 1894.4 33.0996C1898.1 33.0996 1901.5 33.9996 1904.7 35.8996C1907.9 37.6996 1910.4 40.1996 1912.2 43.3996C1914.1 46.5996 1915 50.0996 1915 53.6996ZM1911 53.6996C1911 49.0996 1909.4 45.1996 1906.1 41.9996C1902.9 38.7996 1898.9 37.0996 1894.4 37.0996C1889.8 37.0996 1885.9 38.6996 1882.7 41.9996C1879.5 45.1996 1877.8 49.1996 1877.8 53.6996C1877.8 58.1996 1879.4 62.1996 1882.7 65.3996C1885.9 68.5996 1889.9 70.2996 1894.4 70.2996C1899 70.2996 1902.9 68.6996 1906.1 65.3996C1909.4 62.1996 1911 58.2996 1911 53.6996ZM1885.1 42.6996H1894.9C1897.7 42.6996 1899.7 43.2996 1901 44.3996C1902.2 45.4996 1902.9 46.9996 1902.9 48.8996C1902.9 50.3996 1902.4 51.6996 1901.5 52.6996C1900.5 53.7996 1899 54.5996 1897 54.9996C1897.8 55.2996 1898.5 55.6996 1898.9 55.9996C1899.5 56.4996 1900 57.1996 1900.7 58.1996C1900.7 58.2996 1901.9 60.3996 1904.3 64.5996H1897.8C1895.7 60.3996 1894.3 57.8996 1893.6 57.0996C1892.9 56.2996 1892.2 55.8996 1891.4 55.8996C1891.2 55.8996 1891 55.8996 1890.7 55.9996V64.6996H1885.2L1885.1 42.6996ZM1890.5 52.0996H1892.9C1894.5 52.0996 1895.6 51.7996 1896.2 51.2996C1896.8 50.7996 1897.2 50.0996 1897.2 49.2996C1897.2 48.4996 1896.9 47.7996 1896.3 47.2996C1895.7 46.7996 1894.6 46.4996 1893.1 46.4996H1890.5V52.0996Z" fill="black"/>
</svg>
