<svg width="368" height="156" viewBox="0 0 368 156" fill="none" xmlns="http://www.w3.org/2000/svg">
<path d="M32.8002 5.2002H4.7002V33.3002H32.8002V5.2002Z" fill="#00C7FD"/>
<path d="M32.1004 151.6V50.2996H5.40039V151.5H32.1004V151.6ZM208.9 152.6V127.8C205 127.8 201.7 127.6 199.3 127.2C196.5 126.8 194.4 125.8 193 124.4C191.6 123 190.7 121 190.2 118.3C189.8 115.8 189.6 112.5 189.6 108.5V73.1996H208.9V50.2996H189.6V10.8996H162.9V108.8C162.9 117.1 163.6 124.1 165 129.7C166.4 135.2 168.8 139.7 172.1 143.1C175.4 146.5 179.8 148.9 185.1 150.4C190.5 151.9 197.3 152.6 205.4 152.6H208.9ZM361.7 151.6V3.09961H335V151.6H361.7ZM137.2 60.2996C129.8 52.2996 119.4 48.2996 106.2 48.2996C99.8004 48.2996 93.9004 49.5996 88.7004 52.1996C83.4004 54.7996 79.0004 58.3996 75.4004 62.9996L74.0004 64.8996V63.1996V50.2996H47.7004V151.5H74.2004V97.5996V101.3C74.2004 100.7 74.2004 100.1 74.2004 99.4996C74.5004 89.9996 76.8004 82.9996 81.2004 78.4996C85.9004 73.6996 91.6004 71.2996 98.1004 71.2996C105.8 71.2996 111.7 73.6996 115.6 78.2996C119.4 82.8996 121.4 89.3996 121.4 97.6996V97.9996V151.5H148.3V94.0996C148.4 79.6996 144.6 68.2996 137.2 60.2996ZM321.2 100.8C321.2 93.4996 319.9 86.6996 317.4 80.2996C314.8 73.9996 311.2 68.3996 306.7 63.5996C302.1 58.7996 296.6 55.0996 290.2 52.3996C283.8 49.6996 276.7 48.3996 269 48.3996C261.7 48.3996 254.8 49.7996 248.4 52.4996C242 55.2996 236.4 58.9996 231.7 63.6996C227 68.3996 223.2 73.9996 220.5 80.3996C217.7 86.7996 216.4 93.6996 216.4 101C216.4 108.3 217.7 115.2 220.3 121.6C222.9 128 226.6 133.6 231.2 138.3C235.8 143 241.5 146.8 248.1 149.5C254.7 152.3 262 153.7 269.8 153.7C292.4 153.7 306.4 143.4 314.8 133.8L295.6 119.2C291.6 124 282 130.5 270 130.5C262.5 130.5 256.3 128.8 251.6 125.3C246.9 121.9 243.7 117.1 242 111.2L241.7 110.3H321.2V100.8ZM241.9 91.4996C241.9 84.0996 250.4 71.1996 268.7 71.0996C287 71.0996 295.6 83.9996 295.6 91.3996L241.9 91.4996Z" fill="#2A66AE"/>
</svg>
