<svg width="4000" height="812" viewBox="0 0 4000 812" fill="none" xmlns="http://www.w3.org/2000/svg">
<g clip-path="url(#clip0_260_276)">
<path d="M3917.05 463.26C3916.4 463.26 3915.75 462.67 3915.75 462.02V458.56C3915.75 457.85 3916.4 457.26 3917.05 457.26H3945.2C3945.85 457.26 3946.5 457.85 3946.5 458.56V462.02C3946.5 462.67 3945.85 463.26 3945.2 463.26H3934.32V493.63C3934.32 494.28 3933.67 495 3933.02 495H3929.24C3928.59 495 3927.94 494.28 3927.94 493.63V463.26H3917.05Z" fill="#090909"/>
<path d="M3979.6 488.09C3979.08 488.09 3978.82 487.83 3978.62 487.57L3966.37 467.95V493.63C3966.37 494.28 3965.72 495 3965.07 495H3961.29C3960.64 495 3959.99 494.28 3959.99 493.63V458.63C3959.99 457.98 3960.64 457.26 3961.29 457.26H3966.63C3967.02 457.26 3967.41 457.52 3967.61 457.85L3979.99 477.66L3992.37 457.85C3992.56 457.52 3992.96 457.26 3993.35 457.26H3998.69C3999.34 457.26 3999.99 457.98 3999.99 458.63V493.63C3999.99 494.28 3999.34 495 3998.69 495H3994.91C3994.26 495 3993.61 494.28 3993.61 493.63V467.95L3981.36 487.57C3981.16 487.83 3980.9 488.09 3980.38 488.09H3979.6Z" fill="#090909"/>
<path d="M1268.71 135.76C1248.84 135.76 1209.94 144.87 1192.55 169.7C1191.72 154.8 1179.31 144.87 1164.41 144.87H1087.42C1071.69 144.87 1059.28 158.11 1059.28 173.84V466.88C1059.28 482.61 1071.7 495.85 1087.42 495.85H1164.41C1180.14 495.85 1192.55 482.6 1192.55 466.88V309.6C1192.55 297.19 1200 259.93 1233.11 259.93C1267.05 259.93 1267.05 291.38 1267.05 302.97V466.87C1267.05 482.6 1279.47 495.84 1295.19 495.84H1372.18C1387.91 495.84 1400.32 483.42 1400.32 467.69V274.83C1400.32 265.72 1391.22 135.76 1268.71 135.76Z" fill="#090909"/>
<path d="M1786.07 0H1709.08C1693.35 0 1680.93 13.25 1680.93 28.97V172.18C1655.27 135.76 1601.46 135.76 1594.84 135.76C1495.5 135.76 1425.14 218.54 1425.14 320.36C1425.14 422.18 1495.5 504.96 1594.84 504.96C1601.46 504.96 1655.27 504.96 1680.93 468.54C1681.76 483.44 1694.17 495.86 1709.08 495.86H1786.07C1801.8 495.86 1814.21 482.61 1814.21 466.89V28.97C1814.22 13.25 1801.8 0 1786.07 0ZM1618.86 380.79C1585.75 380.79 1558.43 355.13 1558.43 320.36C1558.43 285.59 1585.75 259.93 1618.86 259.93C1653.63 259.93 1680.94 285.59 1680.94 320.36C1680.94 355.12 1653.63 380.79 1618.86 380.79Z" fill="#090909"/>
<path d="M2037.71 135.76C1931.75 135.76 1847.32 218.54 1847.32 320.36C1847.32 422.18 1931.75 504.96 2037.71 504.96C2087.38 504.96 2132.08 490.06 2159.4 477.64C2168.51 472.68 2175.13 462.74 2175.13 451.98C2175.13 446.19 2173.48 440.39 2170.16 435.42L2138.7 391.55C2132.91 384.1 2124.63 380.79 2114.7 380.79C2112.22 380.79 2109.73 380.79 2107.25 381.62C2079.11 389.9 2047.65 391.55 2036.06 391.55C2016.19 391.55 1994.67 382.44 1987.22 360.92H2185.89C2201.62 360.92 2214.03 347.68 2214.03 331.95V323.67C2214.03 203.64 2129.59 135.76 2037.71 135.76ZM1987.21 279.79C1994.66 254.13 2013.7 245.02 2036.05 245.02C2058.4 245.02 2077.44 254.13 2084.89 279.79H1987.21Z" fill="#090909"/>
<path d="M2464.85 140.721C2456.57 139.891 2449.12 139.891 2440.84 139.891C2437.53 139.891 2403.59 139.891 2373.79 172.181C2372.96 157.281 2360.55 144.861 2345.65 144.861H2268.66C2252.93 144.861 2240.52 158.101 2240.52 173.831V466.871C2240.52 482.601 2252.94 495.841 2268.66 495.841H2345.65C2361.38 495.841 2373.79 482.591 2373.79 466.871V341.871C2373.79 293.861 2394.49 264.061 2447.47 264.061C2447.47 264.061 2454.09 264.061 2464.85 264.891C2480.58 264.891 2492.99 251.651 2492.99 235.921V169.701C2492.99 153.971 2480.57 140.721 2464.85 140.721Z" fill="#090909"/>
<path d="M2617.97 0H2540.98C2525.25 0 2512.84 13.25 2512.84 28.97V466.87C2512.84 482.6 2525.26 495.84 2540.98 495.84H2617.97C2633.7 495.84 2646.11 482.59 2646.11 466.87V28.97C2646.12 13.25 2633.7 0 2617.97 0Z" fill="#090909"/>
<path d="M3040.14 144.87H2963.16C2948.26 144.87 2935.84 157.28 2935.01 172.19C2909.35 135.77 2855.55 135.77 2848.92 135.77C2749.59 135.77 2679.23 218.55 2679.23 320.37C2679.23 422.19 2749.59 504.97 2848.92 504.97C2855.55 504.97 2909.35 504.969 2935.01 468.549C2935.84 483.449 2948.26 495.87 2963.16 495.87H3040.14C3055.87 495.87 3068.29 482.62 3068.29 466.9V173.84C3068.28 158.11 3055.86 144.87 3040.14 144.87ZM2872.92 380.79C2839.81 380.79 2812.49 355.13 2812.49 320.36C2812.49 285.59 2839.81 259.93 2872.92 259.93C2907.69 259.93 2935 285.59 2935 320.36C2935 355.12 2907.69 380.79 2872.92 380.79Z" fill="#090909"/>
<path d="M3327.37 135.76C3307.5 135.76 3268.59 144.87 3251.21 169.7C3250.38 154.8 3237.97 144.87 3223.07 144.87H3146.08C3130.35 144.87 3117.94 158.11 3117.94 173.84V466.88C3117.94 482.61 3130.35 495.85 3146.08 495.85H3223.07C3238.8 495.85 3251.21 482.6 3251.21 466.88V309.6C3251.21 297.19 3258.66 259.93 3291.78 259.93C3325.72 259.93 3325.72 291.38 3325.72 302.97V466.87C3325.72 482.6 3338.13 495.84 3353.86 495.84H3430.85C3446.58 495.84 3458.99 483.42 3458.99 467.69V274.83C3458.98 265.72 3449.88 135.76 3327.37 135.76Z" fill="#090909"/>
<path d="M3844.73 0H3767.75C3752.02 0 3739.6 13.25 3739.6 28.97V172.18C3713.94 135.76 3660.13 135.76 3653.51 135.76C3554.17 135.76 3483.81 218.54 3483.81 320.36C3483.81 422.18 3554.17 504.96 3653.51 504.96C3660.13 504.96 3713.94 504.96 3739.6 468.54C3740.43 483.44 3752.84 495.86 3767.75 495.86H3844.73C3860.46 495.86 3872.88 482.61 3872.88 466.89V28.97C3872.88 13.25 3860.46 0 3844.73 0ZM3677.52 380.79C3644.41 380.79 3617.09 355.13 3617.09 320.36C3617.09 285.59 3644.41 259.93 3677.52 259.93C3712.29 259.93 3739.6 285.59 3739.6 320.36C3739.6 355.12 3712.29 380.79 3677.52 380.79Z" fill="#090909"/>
<path d="M834.27 505.691C940.402 505.691 1026.44 422.926 1026.44 320.831C1026.44 218.735 940.402 135.971 834.27 135.971C728.137 135.971 642.1 218.735 642.1 320.831C642.1 422.926 728.137 505.691 834.27 505.691Z" fill="#E8008A"/>
<path d="M3051.79 779.3C3054.96 779.3 3058.12 782.15 3058.12 785.32V802.1C3058.12 805.58 3054.95 808.43 3051.79 808.43H2941.59C2938.42 808.43 2935.26 805.58 2935.26 802.1V631.42C2935.26 627.94 2938.43 625.09 2941.59 625.09H3051.79C3054.96 625.09 3058.12 627.94 3058.12 631.42V648.2C3058.12 651.37 3054.95 654.22 3051.79 654.22H2966.29V704.25H3044.83C3048 704.25 3051.16 707.1 3051.16 710.58V727.36C3051.16 730.53 3047.99 733.38 3044.83 733.38H2966.29V779.3H3051.79Z" fill="#090909"/>
<path d="M3117.65 678.92V801.79C3117.65 804.96 3114.48 808.44 3111.32 808.44H3092.95C3089.78 808.44 3086.62 804.96 3086.62 801.79V631.73C3086.62 628.56 3089.79 625.08 3092.95 625.08H3113.85C3115.75 625.08 3117.65 626.35 3118.6 627.93L3214.55 754.6V631.73C3214.55 628.56 3217.72 625.08 3220.88 625.08H3239.25C3242.42 625.08 3245.58 628.56 3245.58 631.73V801.78C3245.58 804.95 3242.41 808.43 3239.25 808.43H3218.98C3217.08 808.43 3215.18 807.16 3214.23 805.58L3117.65 678.92Z" fill="#090909"/>
<path d="M3454.58 661.5C3454.58 664.03 3453.63 665.62 3451.73 666.88L3438.75 676.06C3437.8 676.69 3435.9 677.64 3434.95 677.64C3433.37 677.64 3431.78 676.37 3430.83 675.43C3416.9 658.33 3396 651.05 3373.19 651.05C3336.77 651.05 3307.01 679.55 3307.01 716.92C3307.01 753.02 3336.78 782.79 3373.19 782.79C3427.66 782.79 3432.73 734.34 3432.73 734.34H3394.41C3391.24 734.34 3388.08 731.49 3388.08 728.32V712.17C3388.08 708.69 3391.25 705.84 3394.41 705.84H3458.06C3461.23 705.84 3464.39 708.69 3464.39 712.17V735.29C3451.72 809.07 3381.74 811.92 3373.19 811.92C3318.72 811.92 3275.97 769.49 3275.97 716.92C3275.97 664.35 3317.77 621.92 3373.19 621.92C3415.94 621.92 3440.96 642.82 3452.36 656.44C3453.63 657.7 3454.58 659.92 3454.58 661.5Z" fill="#090909"/>
<path d="M3523.92 801.79C3523.92 804.96 3520.75 808.44 3517.59 808.44H3499.22C3496.05 808.44 3492.89 804.96 3492.89 801.79V631.73C3492.89 628.56 3496.06 625.08 3499.22 625.08H3517.59C3520.76 625.08 3523.92 628.56 3523.92 631.73V801.79Z" fill="#090909"/>
<path d="M3588.52 678.92V801.79C3588.52 804.96 3585.35 808.44 3582.19 808.44H3563.82C3560.65 808.44 3557.49 804.96 3557.49 801.79V631.73C3557.49 628.56 3560.66 625.08 3563.82 625.08H3584.72C3586.62 625.08 3588.52 626.35 3589.47 627.93L3685.42 754.6V631.73C3685.42 628.56 3688.59 625.08 3691.75 625.08H3710.12C3713.29 625.08 3716.45 628.56 3716.45 631.73V801.78C3716.45 804.95 3713.28 808.43 3710.12 808.43H3689.85C3687.95 808.43 3686.05 807.16 3685.1 805.58L3588.52 678.92Z" fill="#090909"/>
<path d="M3866.54 779.3C3869.71 779.3 3872.87 782.15 3872.87 785.32V802.1C3872.87 805.58 3869.7 808.43 3866.54 808.43H3756.34C3753.17 808.43 3750.01 805.58 3750.01 802.1V631.42C3750.01 627.94 3753.18 625.09 3756.34 625.09H3866.54C3869.71 625.09 3872.87 627.94 3872.87 631.42V648.2C3872.87 651.37 3869.7 654.22 3866.54 654.22H3781.04V704.25H3859.57C3862.74 704.25 3865.9 707.1 3865.9 710.58V727.36C3865.9 730.53 3862.73 733.38 3859.57 733.38H3781.04V779.3H3866.54Z" fill="#090909"/>
<path d="M655.23 18.0293H565.83C555.07 18.0293 545.14 23.8293 541.82 34.5893L467.68 316.039L400.63 37.8993C396.49 26.3093 386.56 18.0293 374.14 18.0293H293.02C280.6 18.0293 270.67 26.3093 266.53 37.8993L199.48 316.039L140.7 34.5893C137.39 23.8293 127.46 18.0293 116.69 18.0293H27.2903C12.8103 18.0293 0.68031 30.5393 0.000310154 44.9193C-0.0396898 45.7493 0.0703102 46.5893 0.28031 47.3893L110.07 477.459C114.21 489.049 124.97 497.329 138.21 497.329H254.1C267.34 497.329 278.1 489.049 282.25 477.459L333.57 283.759L384.89 477.459C389.03 489.049 399.79 497.329 413.04 497.329H528.93C542.17 497.329 552.94 489.049 557.07 477.459L682.54 46.1793C682.55 31.2793 670.13 18.0293 655.23 18.0293Z" fill="#090909"/>
</g>
<defs>
<clipPath id="clip0_260_276">
<rect width="4000" height="811.92" fill="white"/>
</clipPath>
</defs>
</svg>
